<mxfile host="app.diagrams.net" modified="2024-05-24T14:30:13.175Z" agent="Mozilla/5.0 (Windows NT 10.0; Win64; x64) AppleWebKit/537.36 (KHTML, like Gecko) Chrome/123.0.0.0 Safari/537.36 Edg/123.0.0.0" version="24.4.8" etag="G0uXTP9hlIaw8CODLLPA" type="github">
  <diagram name="Page-1" id="pjdK0ZwnSAoWGVTnv6rc">
    <mxGraphModel>
      <root>
        <mxCell id="0" />
        <mxCell id="1" parent="0" />
      </root>
    </mxGraphModel>
  </diagram>
</mxfile>
